<svg xmlns="http://www.w3.org/2000/svg" viewBox="0 0 120 120" width="120" height="120" shape-rendering="crispEdges"><rect x="30" y="10" width="10" height="10" fill="#000" /><rect x="40" y="10" width="10" height="10" fill="#000" /><rect x="50" y="10" width="10" height="10" fill="#000" /><rect x="60" y="10" width="10" height="10" fill="#000" /><rect x="70" y="10" width="10" height="10" fill="#000" /><rect x="80" y="10" width="10" height="10" fill="#000" /><rect x="20" y="20" width="10" height="10" fill="#000" /><rect x="30" y="20" width="10" height="10" fill="#2ea52c" /><rect x="40" y="20" width="10" height="10" fill="#2ea52c" /><rect x="50" y="20" width="10" height="10" fill="#2ea52c" /><rect x="60" y="20" width="10" height="10" fill="#2ea52c" /><rect x="70" y="20" width="10" height="10" fill="#2ea52c" /><rect x="80" y="20" width="10" height="10" fill="#2ea52c" /><rect x="90" y="20" width="10" height="10" fill="#000" /><rect x="10" y="30" width="10" height="10" fill="#000" /><rect x="20" y="30" width="10" height="10" fill="#2ea52c" /><rect x="30" y="30" width="10" height="10" fill="#2ea52c" /><rect x="40" y="30" width="10" height="10" fill="#2ea52c" /><rect x="50" y="30" width="10" height="10" fill="#2ea52c" /><rect x="60" y="30" width="10" height="10" fill="#59c59f" /><rect x="70" y="30" width="10" height="10" fill="#2ea52c" /><rect x="80" y="30" width="10" height="10" fill="#2ea52c" /><rect x="90" y="30" width="10" height="10" fill="#2ea52c" /><rect x="100" y="30" width="10" height="10" fill="#000" /><rect x="10" y="40" width="10" height="10" fill="#000" /><rect x="20" y="40" width="10" height="10" fill="#2ea52c" /><rect x="30" y="40" width="10" height="10" fill="#2ea52c" /><rect x="40" y="40" width="10" height="10" fill="#deedde" /><rect x="50" y="40" width="10" height="10" fill="#59c59f" /><rect x="60" y="40" width="10" height="10" fill="#59c59f" /><rect x="70" y="40" width="10" height="10" fill="#59c59f" /><rect x="80" y="40" width="10" height="10" fill="#59c59f" /><rect x="90" y="40" width="10" height="10" fill="#59c59f" /><rect x="100" y="40" width="10" height="10" fill="#000" /><rect x="10" y="50" width="10" height="10" fill="#000" /><rect x="20" y="50" width="10" height="10" fill="#2ea52c" /><rect x="30" y="50" width="10" height="10" fill="#59c59f" /><rect x="40" y="50" width="10" height="10" fill="#59c59f" /><rect x="50" y="50" width="10" height="10" fill="#59c59f" /><rect x="60" y="50" width="10" height="10" fill="#59c59f" /><rect x="70" y="50" width="10" height="10" fill="#59c59f" /><rect x="80" y="50" width="10" height="10" fill="#59c59f" /><rect x="90" y="50" width="10" height="10" fill="#59c59f" /><rect x="100" y="50" width="10" height="10" fill="#000" /><rect x="10" y="60" width="10" height="10" fill="#000" /><rect x="20" y="60" width="10" height="10" fill="#2ea52c" /><rect x="30" y="60" width="10" height="10" fill="#2ea52c" /><rect x="40" y="60" width="10" height="10" fill="#59c59f" /><rect x="50" y="60" width="10" height="10" fill="#59c59f" /><rect x="60" y="60" width="10" height="10" fill="#59c59f" /><rect x="70" y="60" width="10" height="10" fill="#59c59f" /><rect x="80" y="60" width="10" height="10" fill="#59c59f" /><rect x="90" y="60" width="10" height="10" fill="#2ea52c" /><rect x="100" y="60" width="10" height="10" fill="#000" /><rect x="10" y="70" width="10" height="10" fill="#000" /><rect x="20" y="70" width="10" height="10" fill="#2ea52c" /><rect x="30" y="70" width="10" height="10" fill="#2ea52c" /><rect x="40" y="70" width="10" height="10" fill="#59c59f" /><rect x="50" y="70" width="10" height="10" fill="#59c59f" /><rect x="60" y="70" width="10" height="10" fill="#59c59f" /><rect x="70" y="70" width="10" height="10" fill="#59c59f" /><rect x="80" y="70" width="10" height="10" fill="#59c59f" /><rect x="90" y="70" width="10" height="10" fill="#2ea52c" /><rect x="100" y="70" width="10" height="10" fill="#000" /><rect x="10" y="80" width="10" height="10" fill="#000" /><rect x="20" y="80" width="10" height="10" fill="#2ea52c" /><rect x="30" y="80" width="10" height="10" fill="#2ea52c" /><rect x="40" y="80" width="10" height="10" fill="#2ea52c" /><rect x="50" y="80" width="10" height="10" fill="#59c59f" /><rect x="60" y="80" width="10" height="10" fill="#59c59f" /><rect x="70" y="80" width="10" height="10" fill="#2ea52c" /><rect x="80" y="80" width="10" height="10" fill="#2ea52c" /><rect x="90" y="80" width="10" height="10" fill="#2ea52c" /><rect x="100" y="80" width="10" height="10" fill="#000" /><rect x="20" y="90" width="10" height="10" fill="#000" /><rect x="30" y="90" width="10" height="10" fill="#2ea52c" /><rect x="40" y="90" width="10" height="10" fill="#2ea52c" /><rect x="50" y="90" width="10" height="10" fill="#2ea52c" /><rect x="60" y="90" width="10" height="10" fill="#2ea52c" /><rect x="70" y="90" width="10" height="10" fill="#2ea52c" /><rect x="80" y="90" width="10" height="10" fill="#2ea52c" /><rect x="90" y="90" width="10" height="10" fill="#000" /><rect x="30" y="100" width="10" height="10" fill="#000" /><rect x="40" y="100" width="10" height="10" fill="#000" /><rect x="50" y="100" width="10" height="10" fill="#000" /><rect x="60" y="100" width="10" height="10" fill="#000" /><rect x="70" y="100" width="10" height="10" fill="#000" /><rect x="80" y="100" width="10" height="10" fill="#000" /><rect x="10" y="70" width="10" height="10" fill="#94a3b8" /><rect x="20" y="70" width="10" height="10" fill="#94a3b8" opacity="0.9"/><rect x="30" y="70" width="10" height="10" fill="#94a3b8" opacity="0.9"/><rect x="40" y="70" width="10" height="10" fill="#94a3b8" opacity="0.9"/><rect x="50" y="70" width="10" height="10" fill="#94a3b8" opacity="0.9"/><rect x="60" y="70" width="10" height="10" fill="#94a3b8" opacity="0.9"/><rect x="70" y="70" width="10" height="10" fill="#94a3b8" opacity="0.9"/><rect x="80" y="70" width="10" height="10" fill="#94a3b8" opacity="0.9"/><rect x="90" y="70" width="10" height="10" fill="#94a3b8" opacity="0.9"/><rect x="100" y="70" width="10" height="10" fill="#94a3b8" opacity="0.9"/></svg>