<svg width="250" height="250" viewBox="0 0 250 250" fill="none" xmlns="http://www.w3.org/2000/svg">
<circle cx="124.805" cy="124.805" r="124.805" fill="#1FFFAB"/>
<g filter="url(#filter0_i_400_3486)">
<path d="M174.953 155.995C179.767 151.123 184.241 145.928 188.345 140.445C199.199 125.827 203.324 112.504 204.12 100.906C204.803 90.924 194.471 55.8801 194.471 55.8801C194.471 55.8801 162.483 45.8296 149.465 46.2678C137.843 46.6698 124.54 51.1724 109.923 62.039C104.454 66.1313 99.2694 70.5906 94.4051 75.386C88.801 72.9739 81.8742 74.1799 77.1183 78.9559L71.5223 84.552C70.5574 85.5168 69.6207 86.5621 68.7443 87.6154C66.4725 90.3664 64.5596 93.3951 63.0517 96.6286C62.6095 97.5693 62.2477 98.4497 61.906 99.3181C60.3196 103.431 59.4245 107.778 59.2567 112.183C59.2041 113.63 59.2337 115.08 59.3451 116.524C59.5927 119.808 60.2824 123.042 61.3954 126.141C61.3713 121.968 62.513 118.478 64.9573 116.034C73.8459 107.145 96.576 115.463 115.728 134.615C134.88 153.767 143.194 176.497 134.305 185.386C131.853 187.838 128.343 188.98 124.15 188.944C137.771 193.845 154.213 190.379 165.775 178.817L171.371 173.221C176.075 168.453 177.305 161.591 174.953 155.995Z" fill="white"/>
<path d="M105.29 171.797C97.8408 179.242 46.2539 203.857 46.2539 203.857C46.2539 203.857 70.8694 152.271 78.3188 144.825C80.0895 143.054 82.1919 141.648 84.5058 140.69C86.8197 139.731 89.2998 139.238 91.8045 139.238C94.3092 139.238 96.7893 139.731 99.1032 140.69C101.417 141.648 103.52 143.054 105.29 144.825C108.866 148.402 110.874 153.253 110.874 158.311C110.874 163.369 108.866 168.219 105.29 171.797Z" fill="white"/>
</g>
<defs>
<filter id="filter0_i_400_3486" x="46.2539" y="46.2539" width="157.898" height="163.674" filterUnits="userSpaceOnUse" color-interpolation-filters="sRGB">
<feFlood flood-opacity="0" result="BackgroundImageFix"/>
<feBlend mode="normal" in="SourceGraphic" in2="BackgroundImageFix" result="shape"/>
<feColorMatrix in="SourceAlpha" type="matrix" values="0 0 0 0 0 0 0 0 0 0 0 0 0 0 0 0 0 0 127 0" result="hardAlpha"/>
<feOffset dy="6.07057"/>
<feGaussianBlur stdDeviation="3.03528"/>
<feComposite in2="hardAlpha" operator="arithmetic" k2="-1" k3="1"/>
<feColorMatrix type="matrix" values="0 0 0 0 0 0 0 0 0 0 0 0 0 0 0 0 0 0 0.25 0"/>
<feBlend mode="normal" in2="shape" result="effect1_innerShadow_400_3486"/>
</filter>
</defs>
</svg>
